<?xml version="1.0" standalone="no"?>
<!DOCTYPE svg PUBLIC "-//W3C//DTD SVG 20010904//EN"
 "http://www.w3.org/TR/2001/REC-SVG-20010904/DTD/svg10.dtd">
<svg version="1.0" xmlns="http://www.w3.org/2000/svg"
 width="1837.000000pt" height="789.000000pt" viewBox="0 0 1837.000000 789.000000"
 preserveAspectRatio="xMidYMid meet">

<g transform="translate(0.000000,789.000000) scale(0.100000,-0.100000)"
fill="#000000" stroke="none">
<path d="M3810 7610 l-605 -5 -87 -31 c-219 -79 -397 -240 -506 -459 -73 -148
-102 -267 -102 -424 0 -223 55 -317 445 -761 333 -379 350 -407 327 -520 -15
-70 -44 -110 -120 -165 l-62 -45 -1410 0 -1410 0 2 -462 3 -463 1640 2 c969 2
1709 7 1808 13 252 15 324 36 477 135 163 106 298 299 360 515 44 154 36 361
-19 468 -31 60 -209 305 -416 572 -324 416 -355 465 -355 557 0 73 16 124 52
168 39 46 98 76 162 81 28 2 482 6 1008 9 l958 5 2 -1263 3 -1262 490 0 490 0
3 1258 2 1257 825 0 825 0 0 415 0 415 -2092 -2 c-1151 -1 -2365 -5 -2698 -8z"/>
<path d="M9690 7585 c-4 -5 -144 -404 -310 -885 -166 -481 -421 -1219 -566
-1639 -145 -421 -264 -768 -264 -773 0 -4 216 -8 479 -8 l480 0 41 133 c23 72
56 179 74 237 l33 105 839 -4 c501 -2 841 -7 845 -13 3 -5 39 -116 79 -247
l72 -238 472 -5 c259 -3 472 -4 473 -3 2 1 -30 98 -71 216 -41 118 -300 867
-576 1664 -276 798 -505 1453 -509 1457 -11 12 -1581 15 -1591 3z m1078 -1195
c300 -882 306 -900 297 -908 -4 -4 -258 -9 -566 -10 -490 -3 -559 -2 -559 11
0 21 94 293 285 827 272 761 287 802 295 793 4 -4 116 -325 248 -713z"/>
<path d="M13330 5935 l0 -1655 536 0 537 0 -7 633 -7 632 78 -76 c43 -41 166
-158 273 -260 631 -598 902 -831 1034 -889 76 -34 265 -40 1315 -40 l1004 0
-6 278 c-4 152 -7 351 -7 442 0 91 -4 171 -8 178 -7 9 -204 15 -899 25 l-891
13 -96 78 c-99 81 -178 162 -224 230 -32 47 -45 33 153 148 77 44 172 105 212
135 184 140 316 335 370 550 13 51 17 107 17 223 -1 167 -17 275 -54 373 -52
138 -239 363 -379 457 -88 59 -211 115 -308 139 -131 34 -402 41 -1570 41
l-1073 0 0 -1655z m2130 961 c133 -44 232 -119 269 -206 50 -116 48 -269 -5
-377 -28 -58 -114 -142 -177 -175 -57 -29 -216 -37 -739 -38 l-428 0 0 411 0
410 513 -3 c460 -4 518 -6 567 -22z"/>
<path d="M7098 3633 l-466 -3 -25 -73 c-30 -87 -841 -2436 -1004 -2905 -63
-183 -114 -335 -112 -336 2 -2 212 -6 466 -9 429 -5 464 -5 471 11 5 9 39 122
77 250 l68 232 457 0 c251 0 632 -3 846 -7 l390 -6 33 -106 c18 -58 53 -170
78 -249 l45 -142 475 0 c376 0 474 3 470 13 -2 6 -262 755 -577 1662 -315 908
-578 1656 -583 1663 -7 9 -82 11 -326 10 -174 -2 -526 -4 -783 -5z m606 -1259
c140 -412 261 -769 270 -793 9 -24 16 -45 16 -47 0 -2 -255 -4 -566 -4 -449 0
-565 3 -561 13 12 31 424 1156 498 1359 45 126 84 227 85 225 2 -2 118 -340
258 -753z"/>
<path d="M15728 3605 c-100 -17 -196 -48 -283 -92 -90 -46 -116 -64 -194 -138
-166 -157 -251 -364 -251 -610 0 -271 90 -451 376 -755 200 -212 352 -402 391
-485 29 -64 26 -99 -12 -174 -44 -88 -82 -106 -246 -121 -141 -13 -1873 -13
-2074 0 -140 9 -167 14 -214 37 -62 30 -256 212 -286 267 -25 45 -22 48 110
116 138 72 233 140 343 245 150 142 204 231 272 440 28 87 33 114 33 205 0
174 -56 338 -174 515 -145 216 -370 392 -601 471 -163 55 -131 54 -1425 54
l-1195 0 7 -1652 c4 -909 8 -1654 9 -1654 0 -1 233 -3 516 -5 l515 -4 3 638
c1 350 6 637 10 637 15 0 112 -89 527 -481 532 -503 738 -675 890 -745 88 -40
308 -46 1845 -47 1842 -1 1872 1 2082 158 302 227 448 563 382 882 -29 141
-60 188 -438 663 -270 338 -352 451 -373 512 -24 69 16 202 73 247 27 21 29
21 875 21 l849 0 0 358 c0 198 3 393 6 435 l7 77 -1139 -1 c-883 -1 -1156 -4
-1216 -14z m-3344 -705 c115 -12 177 -42 249 -119 114 -124 145 -271 87 -423
-45 -121 -180 -223 -330 -250 -151 -27 -1012 -11 -1042 20 -3 4 -4 184 -1 400
l6 392 471 -5 c259 -4 511 -10 560 -15z"/>
<path d="M440 3598 c0 -6 237 -707 526 -1557 290 -850 542 -1592 561 -1648
l35 -103 327 0 328 0 298 817 c446 1222 434 1190 440 1168 4 -11 161 -468 350
-1015 l343 -995 329 -3 330 -2 41 117 c105 299 1102 3209 1102 3215 0 5 -213
8 -473 8 l-473 0 -61 -177 c-252 -731 -431 -1234 -443 -1247 -18 -19 -127 270
-366 972 l-157 462 -531 0 -531 0 -255 -725 c-140 -399 -257 -725 -260 -725
-7 0 -23 45 -296 815 -102 286 -194 546 -206 578 l-21 57 -468 0 c-356 0 -469
-3 -469 -12z"/>
</g>
</svg>
